<svg width="260" height="90" viewBox="0 0 260 90" fill="none" xmlns="http://www.w3.org/2000/svg">
<rect width="260" height="90" rx="20" fill="#0455BF"/>
<path d="M211.52 66.3976C208.102 66.3976 204.804 65.9803 201.625 65.1458C198.485 64.2714 195.922 63.1587 193.935 61.8075L197.809 53.1041C199.677 54.2964 201.823 55.2899 204.247 56.0847C206.711 56.8398 209.156 57.2174 211.58 57.2174C213.209 57.2174 214.521 57.0783 215.514 56.8001C216.508 56.4821 217.223 56.0847 217.66 55.6078C218.137 55.0912 218.376 54.4951 218.376 53.8195C218.376 52.8657 217.938 52.1106 217.064 51.5542C216.19 50.9978 215.057 50.5408 213.666 50.1831C212.275 49.8254 210.725 49.4678 209.016 49.1101C207.347 48.7524 205.658 48.2954 203.949 47.739C202.28 47.1826 200.75 46.4673 199.359 45.593C197.968 44.6789 196.836 43.5066 195.961 42.0759C195.087 40.6054 194.65 38.7575 194.65 36.5319C194.65 34.0282 195.326 31.763 196.677 29.7362C198.068 27.7094 200.134 26.08 202.876 24.848C205.619 23.616 209.036 23 213.13 23C215.872 23 218.554 23.3179 221.177 23.9538C223.84 24.5499 226.205 25.4441 228.271 26.6363L224.635 35.3993C222.648 34.3263 220.681 33.5315 218.733 33.0148C216.786 32.4585 214.898 32.1803 213.07 32.1803C211.441 32.1803 210.129 32.3591 209.136 32.7168C208.142 33.0347 207.427 33.4719 206.99 34.0282C206.552 34.5846 206.334 35.2205 206.334 35.9358C206.334 36.8499 206.751 37.5851 207.586 38.1415C208.46 38.6581 209.593 39.0953 210.984 39.4529C212.414 39.7709 213.964 40.1087 215.633 40.4663C217.342 40.824 219.031 41.281 220.7 41.8374C222.409 42.3541 223.959 43.0694 225.35 43.9835C226.741 44.8578 227.854 46.0301 228.688 47.5006C229.563 48.9313 230 50.7395 230 52.9253C230 55.3495 229.304 57.5949 227.913 59.6614C226.562 61.6883 224.516 63.3177 221.773 64.5496C219.071 65.7816 215.653 66.3976 211.52 66.3976Z" fill="white"/>
<path d="M172.228 66.3976C166.068 66.3976 161.259 64.7086 157.802 61.3306C154.344 57.9526 152.616 53.1638 152.616 46.9641V23.8346H164.419V46.6064C164.419 50.1831 165.114 52.7465 166.505 54.2964C167.936 55.8463 169.883 56.6213 172.347 56.6213C174.811 56.6213 176.739 55.8463 178.13 54.2964C179.521 52.7465 180.216 50.1831 180.216 46.6064V23.8346H191.841V46.9641C191.841 53.1638 190.112 57.9526 186.654 61.3306C183.197 64.7086 178.388 66.3976 172.228 66.3976Z" fill="white"/>
<path d="M133.155 66.3976C129.857 66.3976 126.797 65.881 123.975 64.8477C121.193 63.7747 118.769 62.2645 116.703 60.3172C114.676 58.3699 113.086 56.0847 111.934 53.4618C110.781 50.7991 110.205 47.8781 110.205 44.6988C110.205 41.5195 110.781 38.6184 111.934 35.9954C113.086 33.3328 114.676 31.0278 116.703 29.0804C118.769 27.1331 121.193 25.6428 123.975 24.6095C126.797 23.5365 129.857 23 133.155 23C137.01 23 140.448 23.6756 143.468 25.0268C146.528 26.378 149.072 28.3253 151.099 30.8688L143.588 37.6646C142.236 36.0749 140.746 34.8628 139.117 34.0282C137.527 33.1937 135.739 32.7764 133.752 32.7764C132.043 32.7764 130.473 33.0546 129.042 33.611C127.612 34.1673 126.38 34.982 125.346 36.0551C124.353 37.0883 123.558 38.3402 122.962 39.8106C122.405 41.281 122.127 42.9104 122.127 44.6988C122.127 46.4872 122.405 48.1166 122.962 49.587C123.558 51.0574 124.353 52.3292 125.346 53.4022C126.38 54.4355 127.612 55.2303 129.042 55.7867C130.473 56.343 132.043 56.6212 133.752 56.6212C135.739 56.6212 137.527 56.2039 139.117 55.3694C140.746 54.5348 142.236 53.3227 143.588 51.733L151.099 58.5288C149.072 61.0325 146.528 62.9799 143.468 64.3708C140.448 65.722 137.01 66.3976 133.155 66.3976Z" fill="white"/>
<path d="M85.9606 66.3976C82.6223 66.3976 79.5424 65.8611 76.7207 64.7881C73.8991 63.7151 71.4351 62.2049 69.3288 60.2576C67.2623 58.2705 65.6527 55.9655 64.5002 53.3426C63.3477 50.7196 62.7715 47.8384 62.7715 44.6988C62.7715 41.5592 63.3477 38.678 64.5002 36.0551C65.6527 33.4321 67.2623 31.147 69.3288 29.1997C71.4351 27.2126 73.8991 25.6825 76.7207 24.6095C79.5424 23.5365 82.6223 23 85.9606 23C89.3386 23 92.4186 23.5365 95.2005 24.6095C98.0221 25.6825 100.466 27.2126 102.533 29.1997C104.599 31.147 106.209 33.4321 107.361 36.0551C108.554 38.678 109.15 41.5592 109.15 44.6988C109.15 47.8384 108.554 50.7395 107.361 53.4022C106.209 56.0251 104.599 58.3102 102.533 60.2576C100.466 62.2049 98.0221 63.7151 95.2005 64.7881C92.4186 65.8611 89.3386 66.3976 85.9606 66.3976ZM85.9606 56.6212C87.5503 56.6212 89.0207 56.343 90.3719 55.7867C91.7628 55.2303 92.9551 54.4355 93.9486 53.4022C94.9819 52.3292 95.7767 51.0574 96.3331 49.587C96.9292 48.1166 97.2273 46.4872 97.2273 44.6988C97.2273 42.8707 96.9292 41.2413 96.3331 39.8106C95.7767 38.3402 94.9819 37.0883 93.9486 36.0551C92.9551 34.982 91.7628 34.1673 90.3719 33.611C89.0207 33.0546 87.5503 32.7764 85.9606 32.7764C84.3709 32.7764 82.8806 33.0546 81.4897 33.611C80.1385 34.1673 78.9462 34.982 77.913 36.0551C76.9194 37.0883 76.1246 38.3402 75.5285 39.8106C74.9721 41.2413 74.6939 42.8707 74.6939 44.6988C74.6939 46.4872 74.9721 48.1166 75.5285 49.587C76.1246 51.0574 76.9194 52.3292 77.913 53.4022C78.9462 54.4355 80.1385 55.2303 81.4897 55.7867C82.8806 56.343 84.3709 56.6212 85.9606 56.6212Z" fill="white"/>
<path d="M40.9686 42.1355H60.2233V51.2562H40.9686V42.1355ZM41.8032 65.5631H30V23.8346H62.727V32.9552H41.8032V65.5631Z" fill="white"/>
</svg>
